<?xml version="1.0" standalone="no"?>
<!DOCTYPE svg PUBLIC "-//W3C//DTD SVG 20010904//EN"
 "http://www.w3.org/TR/2001/REC-SVG-20010904/DTD/svg10.dtd">
<svg version="1.0" xmlns="http://www.w3.org/2000/svg"
 width="500.000000pt" height="500.000000pt" viewBox="0 0 500.000000 500.000000"
 preserveAspectRatio="xMidYMid meet">
<metadata>
Created by potrace 1.11, written by Peter Selinger 2001-2013
</metadata>
<g transform="translate(0.000000,500.000000) scale(0.100000,-0.100000)"
fill="#000000" stroke="none">
<path d="M0 2500 l0 -2500 2500 0 2500 0 0 2500 0 2500 -2500 0 -2500 0 0
-2500z m1697 1103 c-15 -485 -19 -828 -10 -818 32 33 473 764 532 883 l71 142
406 0 c345 0 405 -2 401 -14 -3 -8 -127 -209 -274 -448 -414 -667 -443 -714
-443 -727 0 -30 435 -662 687 -997 102 -136 113 -155 113 -193 0 -33 -4 -43
-22 -51 -51 -21 -503 -97 -692 -116 -61 -6 -74 -4 -112 17 -41 22 -56 45 -263
409 -121 212 -265 467 -319 567 -98 180 -100 182 -106 145 -10 -61 -6 -346 9
-712 8 -190 15 -355 15 -367 l0 -23 -390 0 -391 0 6 63 c3 34 12 199 21 367
17 318 16 319 -16 1700 -4 201 -6 368 -3 372 2 5 180 8 395 8 l391 0 -6 -207z
m2205 -330 c25 -24 38 -46 38 -63 0 -40 -137 -1070 -143 -1076 -3 -3 -97 -18
-208 -34 l-204 -28 -36 36 -37 37 -24 525 c-13 289 -21 532 -17 540 5 8 19 28
32 44 l24 29 184 12 c101 7 222 13 269 14 l84 1 38 -37z m-182 -1344 c67 -31
116 -79 144 -139 18 -38 21 -64 21 -165 0 -101 -3 -127 -21 -166 -31 -67 -87
-124 -152 -156 -52 -26 -66 -28 -172 -28 -105 0 -119 2 -165 26 -93 50 -135
109 -155 220 -15 82 -5 171 25 238 46 99 91 141 193 182 70 28 207 22 282 -12z"/>
</g>
</svg>
